<?xml version="1.0" encoding="utf-8"?>
<!-- Generator: Adobe Illustrator 23.1.0, SVG Export Plug-In . SVG Version: 6.00 Build 0)  -->
<svg version="1.1" id="圖層_1" xmlns="http://www.w3.org/2000/svg" xmlns:xlink="http://www.w3.org/1999/xlink" x="0px" y="0px"
	 viewBox="0 0 72 72" style="enable-background:new 0 0 72 72;" xml:space="preserve">
<title>note</title>
<path d="M67.21,7.82L67.21,7.82l-3.03-3.03c-1.23-1.23-3.31-1.23-4.54,0L56.34,8.1H3.87v60.03H63.9V15.76l0.28-0.28l3.03-3.12
	C68.44,11.13,68.44,9.05,67.21,7.82z M56.62,10.84l4.54,4.54l-1.51,1.51l-4.54-4.54L56.62,10.84z M25.33,43.17l3.4,3.5l-4.73,1.32
	L25.33,43.17z M26.28,41.19L53.5,13.96l4.63,4.44L30.81,45.73L26.28,41.19z M61.72,65.96H6.04V10.28h48.12L23.81,40.62l-2.27,8.32
	l-1.32,1.32c-0.38,0.38-0.38,1.13,0,1.51c0.19,0.19,0.47,0.28,0.76,0.28s0.57-0.09,0.76-0.28l1.32-1.32l8.32-2.27l30.35-30.35V65.96
	z M65.7,10.84L65.7,10.84l-3.03,3.02l-4.54-4.54l3.03-3.03c0.38-0.38,1.04-0.38,1.51,0l3.03,3.03C66.08,9.8,66.08,10.46,65.7,10.84z
	"/>
</svg>
