<?xml version="1.0" encoding="utf-8"?>
<!-- Generator: Adobe Illustrator 23.1.0, SVG Export Plug-In . SVG Version: 6.00 Build 0)  -->
<svg version="1.1" id="logo" xmlns="http://www.w3.org/2000/svg" xmlns:xlink="http://www.w3.org/1999/xlink" x="0px" y="0px"
	 viewBox="0 0 1464 298" style="enable-background:new 0 0 1464 298;" xml:space="preserve">
<style type="text/css">
	.st0{fill:#004EA2;}
	.st1{fill:#D70C19;}
</style>
<g>
	<g>
		<g>
			<path class="st0" d="M402.13,33.78l39.62-16.57c0,0,10.1-1.52,11.77,13.57L402.46,51.1L402.13,33.78z"/>
			<path class="st0" d="M402.13,70.02l39.62-16.57c0,0,10.1-1.52,11.77,13.57l-51.06,20.31L402.13,70.02z"/>
			<path class="st0" d="M453.2,108.78c0,0-0.17-11.19-11.19-11.19l-39.64-0.07v17.04h26.74v47.79l-33.28,23.12l12.23,14.17
				l29.92-20.8c0,0,19.83,29.4,76.61,27.63l113.65-0.79l8.62-20.83c0,0-86.95,2.87-122.07,2.93c0,0-46.6,3.15-61.27-26.8
				L453.2,108.78z"/>
			<polygon class="st0" points="573.66,133.66 629.54,133.66 629.71,148.36 573.66,148.36 			"/>
			<polygon class="st0" points="573.66,158.72 629.54,158.72 629.71,173.42 573.66,173.42 			"/>
			<polygon class="st0" points="470.42,26.25 536.45,26.25 536.45,11.35 561.56,11.35 561.56,26.08 629.47,26.08 629.47,42.21 
				561.73,42.21 561.73,52.96 629.79,52.96 629.56,69.49 470.45,69.49 470.45,53.39 536.34,53.39 536.34,42.33 470.42,42.33 			"/>
			<path class="st0" d="M617.38,78.52H470.4v44.98h63.54c-46.35,26.25-67.89,24.85-67.89,24.85l10.91,19.22
				c27.94-2.8,58.52-21.39,58.52-21.39l0,36.25h26.09v-58.75h68.26V90.97C629.82,80.27,617.38,78.52,617.38,78.52z M609.48,107.34
				H490.53V93.86h118.95V107.34z"/>
		</g>
		<path class="st0" d="M812.36,143.45h85.02l-0.16-65.18c0-16.71-17.13-17.13-17.13-17.13h-73.75V47.23h101.87V29.15H805.06V9.32
			h-26.12v20.07H676.83l0.01,18.07h102.14v13.92h-89.99v82.24h84.06c-51.8,32.03-96.13,39.88-96.13,39.88l10.27,18.38
			c52.62-10.46,91.95-41.51,91.95-41.51v48.31h27.8v-47.13c48.96,32.49,93.92,39.45,93.92,39.45l7.41-17.16
			C871.3,179.51,812.36,143.45,812.36,143.45z M778.92,126.71h-63.91v-15.8h63.91V126.71z M778.92,94.09h-63.91V78.28h63.91V94.09z
			 M806.78,78.28h63.91v15.81h-63.91V78.28z M806.78,126.71v-15.8h63.91v15.8H806.78z"/>
		<path class="st0" d="M1093.89,43.14h86.96V25.37H946.51l0.17,18.07h120.25c-9.81,18.07-27.77,29.9-27.77,29.9H956.7v131.24h25.94
			v-7.81h163.45v7.81h26.35V95.42c0-23.41-22.35-22.35-22.35-22.35h-80.93C1084.87,59.53,1093.89,43.14,1093.89,43.14z
			 M1145.91,91.59v86.84H982.7v-35.8h140.03v-12.93c0,0,0.11-3.87-3.87-3.87l-136.13,0.58V91.59H1145.91z"/>
		<g>
			<path class="st0" d="M1426.22,82.36l-138.76,0l0.76-47.37c6.26-4.04,12.54-8.56,18.61-13.61L1292.51,4
				c0,0-30.61,22.91-80.32,40.54l11.05,19.49c0,0,16.26-4,37.4-13.86v32.37h-27.28v99.08h23.09c-3.4,9.49-22.1,18.45-22.1,18.45
				l8.73,16.61c26.04-7.49,40.42-34.91,40.42-34.91h115.12c12.88,27.17,40.68,35.02,40.68,35.02l6.36-17.62
				c-9.75-4.85-20.17-17.39-20.17-17.39h21.26v-76.07C1446.74,82.09,1426.22,82.36,1426.22,82.36z M1422.48,164.43h-164.97
				l-0.03-9.94h146.79v-8.5c0,0,0.1-8.5-10.03-8.5h-136.81l-0.03-10.11h146.88v-8.5c0,0,0.1-8.5-10.03-8.5h-136.91l-0.04-10.83
				h165.18V164.43z"/>
			<path class="st0" d="M1442.95,44.52c-6.08,14.6-17.01,13.83-17.01,13.83h-60.02c-13.62,0-12.98-13.87-12.98-13.87
				c51.33-3.3,97.27-16.99,97.27-16.99l-7.76-14.44c-41.24,12.91-89.91,15.25-89.91,15.25l-0.1-15.8l-23.81-2.89l-0.13,41.66
				c0,25.22,26.6,25.22,26.6,25.22h79.11c18.97,0,25.57-24.6,25.57-24.6L1442.95,44.52z"/>
		</g>
	</g>
	<g>
		<path class="st1" d="M95.68,134.95l29.83,17.07c0,0,6.47,4.71,14.31,0L285.4,52.34C259.08,23.79,221.37,5.89,179.47,5.89
			c-71.86,0-131.43,52.64-142.26,121.46C43.05,125.76,69.36,119.89,95.68,134.95z"/>
		<path class="st0" d="M179.47,293.94c79.54,0,144.02-64.48,144.02-144.02c0-2.96-0.1-5.9-0.28-8.82l-108.99,73.23
			c-53.64,36.72-113.2-11.45-113.2-11.45c-10.34-7.28-17.44-3.41-17.44-3.41c-6.57,1.61-20.11,11.24-30.63,19.3
			C77.37,263.55,124.87,293.94,179.47,293.94z"/>
		<path class="st0" d="M335.85,31.98L153.64,160.44c0,0-13.51,11.61-30.16,1.65l-40.9-21.38c0,0-26.38-13.98-70.26,10.48
			c-2.64,1.47-5.33,3.07-8.09,4.83v27.9c2.75-2.93,5.45-5.62,8.09-8.09c42.58-39.75,71.32-22.66,71.32-22.66l40.55,25.57
			c23.97,12.75,47.72-3.69,47.72-3.69L335.85,64.27l6.94-4.69v-32.5L335.85,31.98z"/>
		<path class="st1" d="M335.85,64.27v25.11l-150.06,99.18c-23.38,17.54-47.27,7.49-47.27,7.49c-4.37-1.73-41.42-24.08-41.42-24.08
			c-19.96-12.21-36.34,0-36.34,0l-48.43,29.94v-26.09c-2.65,2.47-5.35,5.16-8.09,8.09v52.95c0,0,56.11-40.12,70.06-46.59
			c0,0,14.15-7.84,28.39,0.89c0,0,28.25,15.57,38.87,19.65c0,0,24.48,13.04,52.83-2.11l148.41-95.34V59.58L335.85,64.27z"/>
	</g>
	<g>
		<path class="st1" d="M429.96,251.74v4.97h-12.18c-2.95,0-7.07-0.35-9.92,2.98c-2.6,3.03-2.16,6.36-2.21,10.04h24.3v5.17h-24.3
			v18.43h-6.73v-24.44c0-2.98,0.29-9.14,3.68-12.62c3.93-4.07,11.05-4.52,14.88-4.52H429.96z"/>
		<path class="st1" d="M446.41,251.74h7.11l16.67,41.58h-6.17l-4.47-11.08h-18.97l-4.43,11.08h-6.36L446.41,251.74z M442.41,277.33
			h15.4l-7.72-19.23L442.41,277.33z"/>
		<path class="st1" d="M539.25,274.84c0.2,3.08,0.9,5.86,2.09,7.9c3.38,5.71,8.36,5.51,12.74,5.51h10v5.07h-11.3
			c-5.47,0-13.39-0.5-17.82-8.05c-4.03-6.91-4.08-18.28,0-25.44c4.53-8,10.3-8.1,16.57-8.1h12.54v5.07h-9.8
			c-4.38,0-9.66-0.35-12.89,5.12c-1.19,1.99-2.04,4.87-2.14,7.8h24.83v5.12H539.25z"/>
		<path class="st1" d="M583.75,251.74h7.11l16.67,41.58h-6.17l-4.47-11.08h-18.97l-4.43,11.08h-6.36L583.75,251.74z M579.74,277.33
			h15.4l-7.72-19.23L579.74,277.33z"/>
		<path class="st1" d="M642.22,251.74v5.07h-15.6c-1.32,0-8.24-0.5-10.35,2.98c-0.93,1.59-0.98,4.62,0,6.36
			c1.86,3.33,6.67,3.13,8.68,3.13h4.51c3.63,0,10.45,0.4,13.49,6.01c1.72,3.18,1.72,9.19-0.25,12.47
			c-3.29,5.47-9.91,5.56-14.33,5.56h-17.66v-5.12h15.7c2.4,0,8.78,0.5,10.89-3.23c1.13-2.04,0.64-5.12-0.54-7.06
			c-1.72-2.93-5.35-2.88-8.14-2.88h-6.67c-4.32,0-8.64-0.25-11.58-5.51c-1.86-3.33-1.57-8.45,0.49-11.87
			c3.43-5.86,9.67-5.91,14.23-5.91H642.22z"/>
		<path class="st1" d="M680.44,251.74v4.77h-14.36v36.82h-6.32v-36.82h-15.04v-4.77H680.44z"/>
		<path class="st1" d="M688.81,274.84c0.2,3.08,0.9,5.86,2.09,7.9c3.38,5.71,8.36,5.51,12.74,5.51h10v5.07h-11.3
			c-5.47,0-13.39-0.5-17.82-8.05c-4.03-6.91-4.08-18.28,0-25.44c4.53-8,10.3-8.1,16.57-8.1h12.54v5.07h-9.8
			c-4.38,0-9.66-0.35-12.89,5.12c-1.19,1.99-2.04,4.87-2.14,7.8h24.83v5.12H688.81z"/>
		<path class="st1" d="M782.65,293.33l-20.93-32.54v32.54h-5.8v-41.54c0-0.05,7.3,0,7.3,0l20.55,32.15c0.05-0.1,0-32.15,0-32.15
			h5.85v41.54C789.63,293.38,782.65,293.33,782.65,293.33z"/>
		<path class="st1" d="M834.49,251.79c5.31,0,10.2,0.1,14.03,8.1c3.45,7.16,3.41,18.53,0,25.44c-3.75,7.55-10.41,8-15.08,8h-16.56
			v-41.54H834.49z M822.49,288.31h9.86c3.71,0,7.92,0.2,10.78-5.46c2.61-5.17,2.49-15.8-0.04-20.87c-2.74-5.52-7.2-5.07-10.91-5.07
			h-9.69V288.31z"/>
		<path class="st1" d="M865.12,274.84c0.2,3.08,0.9,5.86,2.09,7.9c3.38,5.71,8.36,5.51,12.74,5.51h10v5.07h-11.3
			c-5.47,0-13.39-0.5-17.82-8.05c-4.03-6.91-4.08-18.28,0-25.44c4.53-8,10.3-8.1,16.57-8.1h12.54v5.07h-9.8
			c-4.38,0-9.66-0.35-12.89,5.12c-1.19,1.99-2.04,4.87-2.14,7.8h24.83v5.12H865.12z"/>
		<path class="st1" d="M903.12,278.42v14.9h-5.88v-41.54h17.03c3.86,0,9.69,0.55,12.44,5.61c2.07,3.73,2.07,10.98,0.05,14.95
			c-3.12,6.11-8.03,6.06-12.44,6.06H903.12z M903.12,273.8h8.81c2.66,0,6.84,0.4,9-3.88c1.1-2.19,1.47-7.45-0.14-10.18
			c-2.07-3.53-6.52-3.13-9.09-3.13h-8.58V273.8z"/>
		<path class="st1" d="M941.63,251.74h7.11l16.67,41.58h-6.17l-4.47-11.08h-18.97l-4.43,11.08h-6.36L941.63,251.74z M937.63,277.33
			h15.4l-7.72-19.23L937.63,277.33z"/>
		<path class="st1" d="M1039.17,251.74v4.77h-14.36v36.82h-6.32v-36.82h-15.04v-4.77H1039.17z"/>
		<path class="st1" d="M1057.9,293.33l-11.4-35.08v35.08h-5.24v-41.54h8.71l10.85,33.73c-0.04,0,10.73-33.73,10.73-33.73h8.76v41.54
			h-5.2v-35.08l-11.44,35.08H1057.9z"/>
		<path class="st1" d="M1094.75,274.84c0.2,3.08,0.9,5.86,2.09,7.9c3.38,5.71,8.36,5.51,12.74,5.51h10v5.07h-11.3
			c-5.47,0-13.39-0.5-17.82-8.05c-4.03-6.91-4.08-18.28,0-25.44c4.53-8,10.3-8.1,16.57-8.1h12.54v5.07h-9.8
			c-4.38,0-9.66-0.35-12.89,5.12c-1.19,1.99-2.04,4.87-2.14,7.8h24.83v5.12H1094.75z"/>
		<path class="st1" d="M1151.86,293.33l-20.34-32.54v32.54h-5.64v-41.54c0-0.05,7.1,0,7.1,0l19.98,32.15c0.05-0.1,0-32.15,0-32.15
			h5.69v41.54C1158.64,293.38,1151.86,293.33,1151.86,293.33z"/>
		<path class="st1" d="M1200.66,251.74v4.77h-14.36v36.82h-6.32v-36.82h-15.04v-4.77H1200.66z"/>
		<path class="st1" d="M1252.8,251.74v5.07h-15.6c-1.33,0-8.24-0.5-10.35,2.98c-0.93,1.59-0.98,4.62,0,6.36
			c1.86,3.33,6.67,3.13,8.68,3.13h4.51c3.63,0,10.45,0.4,13.49,6.01c1.72,3.18,1.72,9.19-0.25,12.47
			c-3.29,5.47-9.91,5.56-14.33,5.56h-17.66v-5.12h15.7c2.4,0,8.78,0.5,10.89-3.23c1.13-2.04,0.64-5.12-0.54-7.06
			c-1.72-2.93-5.35-2.88-8.15-2.88h-6.67c-4.32,0-8.63-0.25-11.58-5.51c-1.86-3.33-1.57-8.45,0.49-11.87
			c3.44-5.86,9.67-5.91,14.23-5.91H1252.8z"/>
		<path class="st1" d="M1295.81,251.74v4.77h-14.36v36.82h-6.32v-36.82h-15.04v-4.77H1295.81z"/>
		<path class="st1" d="M1385.48,274.84c0.2,3.08,0.9,5.86,2.09,7.9c3.38,5.71,8.36,5.51,12.74,5.51h10v5.07h-11.3
			c-5.47,0-13.39-0.5-17.82-8.05c-4.03-6.91-4.08-18.28,0-25.44c4.53-8,10.3-8.1,16.57-8.1h12.54v5.07h-9.8
			c-4.38,0-9.66-0.35-12.89,5.12c-1.19,1.99-2.04,4.87-2.14,7.8h24.83v5.12H1385.48z"/>
		<path class="st1" d="M1448.76,251.74v5.07h-15.6c-1.33,0-8.24-0.5-10.35,2.98c-0.93,1.59-0.98,4.62,0,6.36
			c1.86,3.33,6.67,3.13,8.68,3.13h4.51c3.63,0,10.45,0.4,13.49,6.01c1.72,3.18,1.72,9.19-0.25,12.47
			c-3.29,5.47-9.91,5.56-14.33,5.56h-17.66v-5.12h15.7c2.4,0,8.78,0.5,10.89-3.23c1.13-2.04,0.64-5.12-0.54-7.06
			c-1.72-2.93-5.35-2.88-8.14-2.88h-6.67c-4.32,0-8.63-0.25-11.58-5.51c-1.86-3.33-1.57-8.45,0.49-11.87
			c3.44-5.86,9.67-5.91,14.23-5.91H1448.76z"/>
		<path class="st1" d="M1313.25,250.7c-11.21,0-20.3,9.69-20.3,21.65c0,11.96,9.09,21.65,20.3,21.65c11.21,0,20.3-9.69,20.3-21.65
			C1333.55,260.39,1324.47,250.7,1313.25,250.7z M1313.25,288.42c-7.55,0-13.67-7.2-13.67-16.07c0-8.88,6.12-16.07,13.67-16.07
			s13.67,7.2,13.67,16.07C1326.93,281.23,1320.8,288.42,1313.25,288.42z"/>
		<path class="st1" d="M506.83,284.5c-0.21-1.47-0.47-2.81-0.93-4.04c0,0,0,0,0-0.01l0,0c-0.92-2.49-2.61-4.6-6.22-6.66
			c3.22-0.89,5.4-1.84,7.11-4.97c1.99-3.63,1.75-8.25,0-11.48c-3.08-5.61-10.19-5.61-13.65-5.61h-19.01v41.58h6.12v-18.04h6.12
			c2.65,0,8.2,0.05,11.09,2.88c1.02,0.97,1.63,2.19,2.02,3.47c0.01,0.05,0.3,1.46,0.6,3.32c0.31,1.93,0.63,4.34,0.67,6.22
			c0.02,0.85-0.03,1.59-0.15,2.13h0.81h5.99c0,0,0.08-0.97,0.05-2.56C507.4,289.18,507.26,286.99,506.83,284.5z M491.87,270.42
			h-11.61v-14.16h11.19c1.9,0,7.06-0.35,9.15,3.33c1.14,2.04,1.14,5.46-0.09,7.6C498.36,270.82,494.29,270.42,491.87,270.42z"/>
		<path class="st1" d="M750.52,284.5c-0.21-1.47-0.47-2.81-0.93-4.04c0,0,0,0,0-0.01l0,0c-0.92-2.49-2.61-4.6-6.22-6.66
			c3.22-0.89,5.4-1.84,7.11-4.97c1.99-3.63,1.75-8.25,0-11.48c-3.08-5.61-10.19-5.61-13.65-5.61h-19.01v41.58h6.12v-18.04h6.12
			c2.65,0,8.2,0.05,11.09,2.88c1.02,0.97,1.63,2.19,2.02,3.47c0.01,0.05,0.3,1.46,0.6,3.32c0.31,1.93,0.63,4.34,0.67,6.22
			c0.02,0.85-0.03,1.59-0.15,2.13h0.81h5.99c0,0,0.08-0.97,0.05-2.56C751.09,289.18,750.95,286.99,750.52,284.5z M735.55,270.42
			h-11.61v-14.16h11.19c1.9,0,7.06-0.35,9.15,3.33c1.14,2.04,1.14,5.46-0.09,7.6C742.05,270.82,737.97,270.42,735.55,270.42z"/>
		<path class="st1" d="M998.91,284.5c-0.21-1.47-0.47-2.81-0.93-4.04c0,0,0,0,0-0.01l0,0c-0.92-2.49-2.61-4.6-6.22-6.66
			c3.22-0.89,5.4-1.84,7.11-4.97c1.99-3.63,1.75-8.25,0-11.48c-3.08-5.61-10.19-5.61-13.65-5.61h-19.01v41.58h6.12v-18.04h6.12
			c2.65,0,8.2,0.05,11.09,2.88c1.02,0.97,1.63,2.19,2.02,3.47c0.01,0.05,0.3,1.46,0.6,3.32c0.31,1.93,0.63,4.34,0.67,6.22
			c0.02,0.85-0.03,1.59-0.15,2.13h0.81h5.99c0,0,0.08-0.97,0.05-2.56C999.48,289.18,999.34,286.99,998.91,284.5z M983.94,270.42
			h-11.61v-14.16h11.19c1.9,0,7.06-0.35,9.15,3.33c1.14,2.04,1.14,5.46-0.09,7.6C990.44,270.82,986.36,270.42,983.94,270.42z"/>
		<path class="st1" d="M1371.75,284.5c-0.21-1.47-0.47-2.81-0.93-4.04c0,0,0,0,0-0.01l0,0c-0.92-2.49-2.61-4.6-6.22-6.66
			c3.22-0.89,5.4-1.84,7.11-4.97c1.99-3.63,1.75-8.25,0-11.48c-3.08-5.61-10.19-5.61-13.65-5.61h-19.01v41.58h6.12v-18.04h6.12
			c2.65,0,8.2,0.05,11.09,2.88c1.02,0.97,1.63,2.19,2.02,3.47c0.01,0.05,0.3,1.46,0.6,3.32c0.31,1.93,0.63,4.34,0.67,6.22
			c0.02,0.85-0.03,1.59-0.15,2.13h0.81h5.99c0,0,0.08-0.97,0.05-2.56C1372.32,289.18,1372.18,286.99,1371.75,284.5z M1356.78,270.42
			h-11.61v-14.16h11.19c1.9,0,7.06-0.35,9.15,3.33c1.14,2.04,1.14,5.46-0.09,7.6C1363.27,270.82,1359.2,270.42,1356.78,270.42z"/>
	</g>
</g>
</svg>
