<?xml version="1.0" encoding="utf-8"?>
<!-- Generator: Adobe Illustrator 23.1.0, SVG Export Plug-In . SVG Version: 6.00 Build 0)  -->
<svg version="1.1" id="圖層_1" xmlns="http://www.w3.org/2000/svg" xmlns:xlink="http://www.w3.org/1999/xlink" x="0px" y="0px"
	 viewBox="0 0 72 72" style="enable-background:new 0 0 72 72;" xml:space="preserve">
<path d="M49.93,20.59H21.28c-0.57,0-1.04,0.47-1.04,1.04s0.47,1.04,1.04,1.04h28.64c0.57,0,1.04-0.47,1.04-1.04
	C51.06,21.06,50.49,20.59,49.93,20.59z"/>
<path d="M14.76,33.07L14.76,33.07c0.57,0,1.04-0.47,1.04-1.04V7.73h40.46v24.2c0,0.57,0.47,1.04,1.04,1.04s1.04-0.47,1.04-1.04V6.69
	c0-0.57-0.47-1.04-1.04-1.04H14.76c-0.57,0-1.04,0.47-1.04,1.04v25.24C13.62,32.6,14.1,33.07,14.76,33.07z"/>
<path d="M49.93,13.88H21.28c-0.57,0-1.04,0.47-1.04,1.04c0,0.57,0.47,1.04,1.04,1.04h28.64c0.57,0,1.04-0.47,1.04-1.04
	C51.06,14.44,50.49,13.88,49.93,13.88z"/>
<path d="M49.93,27.21H21.28c-0.57,0-1.04,0.47-1.04,1.04c0,0.57,0.47,1.04,1.04,1.04h28.64c0.57,0,1.04-0.47,1.04-1.04
	C51.06,27.68,50.49,27.21,49.93,27.21z"/>
<path d="M67.79,25.32L67.79,25.32l-5.1-4.82c-0.47-0.38-1.13-0.38-1.51,0c-0.38,0.47-0.38,1.13,0,1.51L66,26.54v2.55L44.73,45.73
	l-7.94-7c-0.38-0.38-1.04-0.38-1.42,0l-7.94,7L6.06,29.38v-2.74l5.2-4.54c0.47-0.38,0.47-1.04,0.09-1.51s-1.04-0.47-1.51-0.09
	l-5.58,4.82c-0.28,0.19-0.38,0.47-0.38,0.85v39.14c0,0.57,0.47,1.04,1.04,1.04h62.11c0.57,0,1.04-0.47,1.04-1.04V26.17
	C68.17,25.79,68.08,25.51,67.79,25.32z M6.06,64.55V32.12l19.66,15.03L6.06,64.55L6.06,64.55z M9.65,64.26l26.38-23.26l26.38,23.26
	H9.65z M66,64.55l-19.66-17.4L66,31.84V64.55z"/>
</svg>
