<?xml version="1.0" encoding="utf-8"?>
<!-- Generator: Adobe Illustrator 25.2.3, SVG Export Plug-In . SVG Version: 6.00 Build 0)  -->
<svg version="1.1" id="圖層_1" xmlns="http://www.w3.org/2000/svg" xmlns:xlink="http://www.w3.org/1999/xlink" x="0px" y="0px"
	 viewBox="0 0 72 72" style="enable-background:new 0 0 72 72;" xml:space="preserve">
<path d="M58.9,13.4c-1.9-1.9-4-3.5-6.2-4.8c-2.2-1.3-4.5-2.4-7-3.1c-2.4-0.8-4.9-1.2-7.4-1.3c-2.5-0.2-5,0-7.5,0.4s-4.9,1.1-7.3,2.1
	c-2.4,1-4.6,2.3-6.7,3.9c-2.3,1.7-4.3,3.7-6,5.9C9,18.7,7.5,21.2,6.3,24c-1.2,2.9-2,6-2.3,9.2c-0.2,3.3,0,6.7,0.8,9.9
	c0.2,0.8,0.4,1.7,0.7,2.5c0.1,0.4,0.3,0.8,0.4,1.2C6,47,6.1,47.3,6.3,47.6C6.8,48,7.6,48,8,47.5c0.2-0.2,0.4-0.5,0.4-0.8
	c0.1-0.4-0.1-0.7-0.2-1c-1.1-3.2-1.6-6.6-1.6-9.9c0-3.2,0.6-6.4,1.7-9.5c0.9-2.8,2.4-5.5,4.2-7.8c1.7-2.3,3.7-4.3,6-6
	c2.1-1.5,4.3-2.8,6.7-3.8s4.8-1.6,7.3-1.9c2.5-0.3,5-0.3,7.5,0c2.5,0.3,5,0.9,7.3,1.9c2.4,0.9,4.6,2.3,6.7,3.8c2.3,1.7,4.3,3.7,6,6
	c1.7,2.3,3.1,4.9,4.2,7.6c1,2.7,1.6,5.7,1.7,8.5c0.2,2.9-0.1,5.9-0.8,8.8c-0.8,2.8-1.9,5.6-3.4,8c-1.5,2.5-3.4,4.8-5.6,6.7
	c-1.9,1.7-4.1,3.2-6.4,4.3c-2.3,1.1-4.7,2-7.2,2.5c-2.5,0.5-4.9,0.8-7.5,0.6c-2.6-0.1-5-0.6-7.4-1.3c-2.5-0.8-4.7-1.8-6.9-3.2
	c-1.1-0.7-2.2-1.5-3.2-2.3c-0.5-0.4-1-0.8-1.5-1.3c-0.1-0.1-0.2-0.2-0.4-0.4c-0.1-0.1-0.3-0.3-0.4-0.4c0-0.2,0-0.4,0-0.6
	c0-0.2,0-0.4,0-0.7c0.2-3.1,0.9-6.2,2.5-9s3.6-5.3,6.1-7.1c0.7-0.5,1.3-0.9,2-1.3c0.4-0.2,0.7-0.4,1-0.6c0.2-0.1,0.4-0.2,0.5-0.3
	c0.1,0,0.1,0,0.2,0.1c0.1,0.1,0.2,0.1,0.2,0.2c1.1,0.9,2.4,1.8,3.8,2.4c2.7,1.1,5.9,1.1,8.7,0.3c1.4-0.5,2.7-1.1,3.9-2.1
	c0.3-0.2,0.6-0.6,0.8-0.8c0.1-0.1,0.1,0,0.2,0s0.2,0.1,0.2,0.1c0.2,0.1,0.3,0.2,0.5,0.3c0.7,0.3,1.2,0.7,1.8,1
	c2.4,1.5,4.3,3.5,6,5.9c0.4,0.6,0.8,1.1,1.1,1.8c0.2,0.3,0.4,0.7,0.5,0.9c0.1,0.3,0.3,0.7,0.5,0.8c0.9,1.1,2.7,0,2.3-1.3
	c-0.3-0.7-0.6-1.3-0.9-1.9c-0.4-0.7-0.7-1.2-1.1-1.8c-0.8-1.1-1.6-2.3-2.6-3.2c-1.9-2-4.1-3.6-6.5-4.8c2.2-3.1,2.7-7.2,1.7-10.9
	c-0.9-3-2.9-5.7-5.7-7.3C41,16,39.5,15.4,38,15.1c-0.4-0.1-0.8-0.1-1.2-0.1c-0.4,0-0.8-0.1-1.2,0c-0.8,0.2-1.1,1.1-0.8,1.9
	c0.4,0.8,1.3,0.7,2.1,0.8c0.8,0.1,1.6,0.3,2.4,0.5c1.5,0.5,2.8,1.4,4,2.5c2.4,2.4,3.4,5.9,2.6,9.2c-0.8,3.8-3.8,6.8-7.5,7.8
	s-7.7-0.4-10.1-3.2c-2.6-2.9-3.2-7.3-1.6-10.8c0.4-0.8,0.9-1.7,1.5-2.4c0.3-0.3,0.7-0.7,0.8-1c0.2-0.4,0.2-0.8-0.1-1.2
	c-0.5-0.8-1.5-0.8-2.2-0.2c-0.7,0.7-1.2,1.4-1.8,2.3c-2.1,3.3-2.5,7.6-1.1,11.2c0.4,0.9,0.8,1.8,1.4,2.6c-4.1,2.1-7.5,5.2-9.8,9.1
	s-3.5,8.4-3.3,13c0,0.8,0.8,1.4,1.3,2c0.8,0.8,1.6,1.5,2.5,2.2c1.7,1.3,3.5,2.5,5.5,3.5c3.7,1.9,7.8,3,12,3.3s8.3-0.2,12.3-1.4
	c4.1-1.3,7.8-3.4,11.2-6.1c3.1-2.6,5.8-6,7.7-9.6c1.9-3.7,3.1-7.8,3.5-12c0.4-4.2-0.1-8.4-1.3-12.4s-3.2-7.7-5.9-10.9
	C60.4,14.8,59.7,14,58.9,13.4L58.9,13.4z"/>
</svg>
