<?xml version="1.0" encoding="utf-8"?>
<!-- Generator: Adobe Illustrator 23.1.0, SVG Export Plug-In . SVG Version: 6.00 Build 0)  -->
<svg version="1.1" id="圖層_1" xmlns="http://www.w3.org/2000/svg" xmlns:xlink="http://www.w3.org/1999/xlink" x="0px" y="0px"
	 viewBox="0 0 72 72" style="enable-background:new 0 0 72 72;" xml:space="preserve">
<rect x="23.05" y="8.39" width="0.76" height="0.85"/>
<rect x="25.13" y="8.39" width="11.91" height="0.85"/>
<path d="M49.52,24.09V7.54c0-2.08-1.61-3.69-3.69-3.69H14.26c-2.08,0-3.69,1.61-3.69,3.69v56.91c0,2.08,1.61,3.69,3.69,3.69h31.48
	c2.08,0,3.69-1.61,3.69-3.69V48.67c6.71-0.19,12.01-5.67,12.01-12.29v0C61.43,29.76,56.14,24.28,49.52,24.09z M11.42,7.54
	c0-1.61,1.32-2.84,2.84-2.84h31.48c1.61,0,2.84,1.32,2.84,2.84v5.2H11.42V7.54z M48.66,64.45c0,1.61-1.23,2.84-2.84,2.84H14.25
	c-1.61,0-2.84-1.32-2.84-2.84v-6.9h37.25V64.45z M48.67,56.8H11.42V13.5h37.25v10.59c-6.62,0.19-11.91,5.67-11.91,12.29
	s5.29,12.1,11.91,12.29V56.8z M49.05,47.91c-6.33,0-11.53-5.2-11.53-11.53c0-6.33,5.2-11.53,11.53-11.53
	c6.33,0,11.53,5.2,11.53,11.53C60.58,42.71,55.38,47.91,49.05,47.91z"/>
<path d="M30.04,66.25c1.99,0,3.59-1.61,3.59-3.59c0-1.98-1.61-3.59-3.59-3.59c-1.98,0-3.59,1.61-3.59,3.59
	C26.45,64.64,28.06,66.25,30.04,66.25z M30.04,59.92c1.51,0,2.74,1.23,2.74,2.74s-1.23,2.74-2.74,2.74s-2.74-1.23-2.74-2.74
	S28.53,59.92,30.04,59.92z"/>
<polygon points="46.3,40.54 42.71,36.94 42.14,37.51 46.3,41.67 56.04,31.93 55.47,31.37 "/>
</svg>
