<?xml version="1.0" encoding="utf-8"?>
<!-- Generator: Adobe Illustrator 23.1.0, SVG Export Plug-In . SVG Version: 6.00 Build 0)  -->
<svg version="1.1" id="圖層_1" xmlns="http://www.w3.org/2000/svg" xmlns:xlink="http://www.w3.org/1999/xlink" x="0px" y="0px"
	 viewBox="0 0 72 72" style="enable-background:new 0 0 72 72;" xml:space="preserve">
<title>confirm</title>
<path d="M68.14,31.94l-6.24-6.15L49.33,38.27c-2.55-2.93-5.86-5.2-9.64-6.71c2.84-2.55,4.44-5.96,4.44-9.55
	c0-7.47-6.62-13.42-14.75-13.42s-14.75,5.96-14.75,13.33c0,3.69,1.61,7.09,4.44,9.55C9.91,35.15,3.86,43.37,3.86,52.54
	c0,2.84,0.57,5.58,1.7,8.22c0.09,0.28,0.38,0.47,0.66,0.57c7.28,1.32,15.03,2.08,23.16,2.08s15.88-0.76,23.16-2.17
	c0.28-0.09,0.57-0.28,0.66-0.57c1.13-2.65,1.7-5.39,1.7-8.22c0-2.17-0.38-4.25-1.04-6.33L68.14,31.94L68.14,31.94z M61.9,28.44
	l3.5,3.4L52.07,45.17L41.57,55.76L30.8,44.89l3.59-3.5l7.28,7.28l0.66-0.66l0,0l7.66-7.56L61.9,28.44L61.9,28.44z M51.6,59.45
	c-6.9,1.32-14.46,2.08-22.22,2.08c-7.85,0-15.31-0.66-22.22-1.98c-0.95-2.27-1.42-4.63-1.42-7c0-8.79,6.24-16.73,15.6-19.76
	c0.38-0.09,0.57-0.38,0.66-0.76c0.09-0.38-0.09-0.76-0.38-0.95c-3.22-2.17-5.1-5.48-5.1-9.08c0-6.33,5.77-11.53,12.86-11.53
	s12.86,5.1,12.86,11.44c0,3.59-1.89,6.9-5.1,9.08c-0.28,0.19-0.47,0.57-0.38,0.95c0.09,0.38,0.28,0.66,0.66,0.76
	c4.16,1.32,7.85,3.69,10.59,6.9l-6.33,6.33l-7.28-7.28l-1.04,1.04l-4.63,4.54l0,0l-0.66,0.66l12.86,12.95
	c0.19,0.19,0.47,0.28,0.66,0.28c0.19,0,0.47-0.09,0.66-0.28l10.12-10.12c0.38,1.61,0.66,3.22,0.66,4.82
	C52.91,54.91,52.54,57.27,51.6,59.45L51.6,59.45z"/>
</svg>
